HIERARCHY
ROOT Hips
{
	OFFSET 0.000000 0.000000 0.000000
	CHANNELS 6 Xposition Yposition Zposition Xrotation Yrotation Zrotation
	JOINT LeftUpLeg_virtual
	{
		OFFSET 0.000000 0.000000 0.000000
		CHANNELS 3 Xrotation Yrotation Zrotation
		JOINT LeftUpLeg
		{
			OFFSET 15.427100 -6.655098 0.678600
			CHANNELS 3 Xrotation Yrotation Zrotation
			JOINT LeftLeg
			{
				OFFSET 4.081073 -39.591068 13.024000
				CHANNELS 3 Xrotation Yrotation Zrotation
				JOINT LeftFoot
				{
					OFFSET -4.081074 -37.707932 -15.979700
					CHANNELS 3 Xrotation Yrotation Zrotation
					JOINT LeftToeBase
					{
						OFFSET 5.346399 -15.068900 20.645000
						CHANNELS 3 Xrotation Yrotation Zrotation
						JOINT LeftToe_End
						{
							OFFSET 2.754700 0.931300 11.300900
							CHANNELS 3 Xrotation Yrotation Zrotation
							End Site
							{
								OFFSET 0 0 0
							}
						}
					}
				}
			}
		}
	}
	JOINT RightUpLeg_virtual
	{
		OFFSET 0.000000 0.000000 0.000000
		CHANNELS 3 Xrotation Yrotation Zrotation
		JOINT RightUpLeg
		{
			OFFSET -15.569500 -6.655098 0.678600
			CHANNELS 3 Xrotation Yrotation Zrotation
			JOINT RightLeg
			{
				OFFSET -4.081825 -39.591045 13.023800
				CHANNELS 3 Xrotation Yrotation Zrotation
				JOINT RightFoot
				{
					OFFSET 4.081824 -37.707954 -15.979600
					CHANNELS 3 Xrotation Yrotation Zrotation
					JOINT RightToeBase
					{
						OFFSET -5.346400 -15.068900 20.645000
						CHANNELS 3 Xrotation Yrotation Zrotation
						JOINT RightToe_End
						{
							OFFSET -2.754700 0.931300 11.300900
							CHANNELS 3 Xrotation Yrotation Zrotation
							End Site
							{
								OFFSET 0 0 0
							}
						}
					}
				}
			}
		}
	}
	JOINT Spine_virtual
	{
		OFFSET 0.000000 0.000000 0.000000
		CHANNELS 3 Xrotation Yrotation Zrotation
		JOINT Spine
		{
			OFFSET -0.279200 12.230698 -2.892100
			CHANNELS 3 Xrotation Yrotation Zrotation
			JOINT Spine1
			{
				OFFSET -0.232667 10.192268 -1.242267
				CHANNELS 3 Xrotation Yrotation Zrotation
				JOINT Spine1_split
				{
					OFFSET -0.232667 10.192268 -1.242267
					CHANNELS 3 Xrotation Yrotation Zrotation
					JOINT Spine2
					{
						OFFSET -0.232667 10.192268 -1.242267
						CHANNELS 3 Xrotation Yrotation Zrotation
						JOINT Neck_virtual
						{
							OFFSET 0.000000 0.000000 0.000000
							CHANNELS 3 Xrotation Yrotation Zrotation
							JOINT Neck
							{
								OFFSET -0.418800 17.814194 8.416900
								CHANNELS 3 Xrotation Yrotation Zrotation
								JOINT Head
								{
									OFFSET 0.000000 7.031097 3.806800
									CHANNELS 3 Xrotation Yrotation Zrotation
									JOINT HeadTop_End
									{
										OFFSET 0.000000 24.646606 12.978600
										CHANNELS 3 Xrotation Yrotation Zrotation
										End Site
										{
											OFFSET 0 0 0
										}
									}
								}
							}
						}
						JOINT LeftShoulder_virtual
						{
							OFFSET 0.000000 0.000000 0.000000
							CHANNELS 3 Xrotation Yrotation Zrotation
							JOINT LeftShoulder
							{
								OFFSET 8.476499 7.247704 -3.868750
								CHANNELS 3 Xrotation Yrotation Zrotation
								JOINT LeftShoulder_split
								{
									OFFSET 8.476499 7.247704 -3.868750
									CHANNELS 3 Xrotation Yrotation Zrotation
									JOINT LeftArm
									{
										OFFSET 9.308998 -2.777710 0.208600
										CHANNELS 3 Xrotation Yrotation Zrotation
										JOINT LeftForeArm
										{
											OFFSET 29.972298 0.000000 0.000000
											CHANNELS 3 Xrotation Yrotation Zrotation
											JOINT LeftHand
											{
												OFFSET 26.026505 0.000000 0.000000
												CHANNELS 3 Xrotation Yrotation Zrotation
												End Site
												{
													OFFSET 0 0 0
												}
											}
										}
									}
								}
							}
						}
						JOINT RightShoulder_virtual
						{
							OFFSET 0.000000 0.000000 0.000000
							CHANNELS 3 Xrotation Yrotation Zrotation
							JOINT RightShoulder
							{
								OFFSET -7.570500 7.247704 -3.868750
								CHANNELS 3 Xrotation Yrotation Zrotation
								JOINT RightShoulder_split
								{
									OFFSET -7.570500 7.247704 -3.868750
									CHANNELS 3 Xrotation Yrotation Zrotation
									JOINT RightArm
									{
										OFFSET -9.308998 -2.777710 0.208500
										CHANNELS 3 Xrotation Yrotation Zrotation
										JOINT RightForeArm
										{
											OFFSET -29.972300 0.000000 0.000000
											CHANNELS 3 Xrotation Yrotation Zrotation
											JOINT RightHand
											{
												OFFSET -26.026505 0.000000 0.000000
												CHANNELS 3 Xrotation Yrotation Zrotation
												End Site
												{
													OFFSET 0 0 0
												}
											}
										}
									}
								}
							}
						}
					}
				}
			}
		}
	}
}
MOTION
Frames: 8
Frame Time: 0.03333333
-4.004640 79.593941 80.886826 0.000000 0.000000 0.000000 31.572225 14.893381 -5.746368 -1.421558 8.221021 3.669634 23.829480 18.451073 0.679656 -29.316746 5.640330 -27.842916 -22.160325 -9.096363 4.001088 0.000000 0.000000 0.000000 31.572225 14.893381 -5.746368 -68.424596 -6.033771 -7.149729 62.295171 -27.530969 -0.151575 -14.510981 -2.476239 3.908831 -7.438699 8.536467 6.470196 0.000000 0.000000 0.000000 31.572225 14.893381 -5.746368 4.865509 -1.220792 0.881724 9.757382 0.096155 4.188235 0.000000 0.000000 0.000000 0.000000 0.000000 0.000000 9.757394 0.096153 4.188238 -7.024162 0.658826 -0.591049 -4.707666 0.245714 2.478137 0.000000 0.000000 0.000000 9.757394 0.096153 4.188238 3.226802 -20.189781 5.440779 0.000000 0.000000 0.000000 -45.210883 -21.558423 -43.409855 106.504991 -61.973004 119.184479 0.000000 0.000000 0.000000 9.757394 0.096153 4.188238 1.498013 10.178251 -3.380648 0.000000 0.000000 0.000000 -39.360481 5.475569 40.474233 111.651033 50.909952 -132.294043 0.000000 0.000000 0.000000 
-4.066600 79.184883 81.247490 0.000000 0.000000 0.000000 31.958629 14.892970 -5.821548 -1.769398 8.211341 3.879773 24.516508 18.407182 0.683571 -29.429820 5.621282 -28.329900 -22.755339 -9.242224 4.062665 0.000000 0.000000 0.000000 31.958629 14.892970 -5.821548 -69.153343 -6.187141 -7.173696 63.317541 -27.401177 -0.147854 -14.845129 -2.504529 3.759494 -8.095316 8.380784 6.745990 0.000000 0.000000 0.000000 31.958629 14.892970 -5.821548 4.707234 -1.238267 0.878850 9.441398 0.085012 4.172061 0.000000 0.000000 0.000000 0.000000 0.000000 0.000000 9.441407 0.085013 4.172061 -7.147114 0.629942 -0.577766 -4.884826 0.126167 2.445930 0.000000 0.000000 0.000000 9.441407 0.085013 4.172061 3.345517 -20.374555 5.851155 0.000000 0.000000 0.000000 -45.404133 -21.632025 -43.071740 105.129534 -62.566227 117.849805 0.000000 0.000000 0.000000 9.441407 0.085013 4.172061 1.512609 10.066765 -3.702967 0.000000 0.000000 0.000000 -39.856852 5.966724 40.669754 110.736641 51.476755 -131.206076 0.000000 0.000000 0.000000 
-4.118564 78.801323 81.584854 0.000000 0.000000 0.000000 32.385311 14.920488 -5.926015 -2.182147 8.197462 4.098785 25.191838 18.368325 0.686510 -29.502247 5.597113 -28.814662 -23.337102 -9.432437 4.112121 0.000000 0.000000 0.000000 32.385311 14.920488 -5.926015 -69.860623 -6.363913 -7.224304 64.243468 -27.313827 -0.146749 -15.191896 -2.544474 3.659185 -8.650468 8.281837 6.979081 0.000000 0.000000 0.000000 32.385311 14.920488 -5.926015 4.544294 -1.251015 0.892868 9.115790 0.078891 4.180704 0.000000 0.000000 0.000000 0.000000 0.000000 0.000000 9.115795 0.078891 4.180705 -7.260786 0.622990 -0.571326 -5.077531 0.011019 2.406297 0.000000 0.000000 0.000000 9.115795 0.078891 4.180705 3.462220 -20.556776 6.238196 0.000000 0.000000 0.000000 -45.726153 -21.783029 -42.867278 103.432416 -63.200410 116.209098 0.000000 0.000000 0.000000 9.115795 0.078891 4.180705 1.527262 9.940853 -4.054027 0.000000 0.000000 0.000000 -40.408393 6.474585 40.823610 109.704081 52.094990 -130.008198 0.000000 0.000000 0.000000 
-4.160653 78.415367 81.920975 0.000000 0.000000 0.000000 32.821863 14.945593 -6.028441 -2.598081 8.180534 4.308623 25.862754 18.322657 0.683183 -29.559365 5.578763 -29.293889 -23.928357 -9.633969 4.156187 0.000000 0.000000 0.000000 32.821863 14.945593 -6.028441 -70.561400 -6.550964 -7.300390 65.140327 -27.157022 -0.140874 -15.548359 -2.583146 3.577948 -9.157102 8.148785 7.163157 0.000000 0.000000 0.000000 32.821863 14.945593 -6.028441 4.379338 -1.266326 0.903577 8.786295 0.069152 4.187627 0.000000 0.000000 0.000000 0.000000 0.000000 0.000000 8.786297 0.069160 4.187628 -7.375614 0.638791 -0.570448 -5.283602 -0.097789 2.366243 0.000000 0.000000 0.000000 8.786297 0.069160 4.187628 3.580650 -20.737417 6.622317 0.000000 0.000000 0.000000 -46.132658 -21.954666 -42.797791 101.473832 -63.830706 114.352933 0.000000 0.000000 0.000000 8.786297 0.069160 4.187628 1.543026 9.816503 -4.426530 0.000000 0.000000 0.000000 -40.990178 6.984709 41.013285 108.542293 52.751931 -128.683564 0.000000 0.000000 0.000000 
-4.198975 78.006233 82.269821 0.000000 0.000000 0.000000 33.246096 14.925565 -6.115801 -2.973058 8.163361 4.508396 26.533535 18.264740 0.673897 -29.637874 5.574803 -29.760633 -24.538064 -9.798801 4.204796 0.000000 0.000000 0.000000 33.246096 14.925565 -6.115801 -71.266358 -6.738938 -7.364626 66.050818 -26.893877 -0.128710 -15.904826 -2.611104 3.487839 -9.661560 7.943872 7.305844 0.000000 0.000000 0.000000 33.246096 14.925565 -6.115801 4.214061 -1.288874 0.895728 8.456742 0.049888 4.168278 0.000000 0.000000 0.000000 0.000000 0.000000 0.000000 8.456729 0.049887 4.168278 -7.475450 0.675862 -0.577672 -5.503586 -0.207915 2.338961 0.000000 0.000000 0.000000 8.456729 0.049887 4.168278 3.700582 -20.916833 7.003161 0.000000 0.000000 0.000000 -46.556424 -22.125452 -42.724937 99.354602 -64.436483 112.357295 0.000000 0.000000 0.000000 8.456729 0.049887 4.168278 1.562813 9.722050 -4.810987 0.000000 0.000000 0.000000 -41.579268 7.494225 41.263987 107.227666 53.443754 -127.192561 0.000000 0.000000 0.000000 
-4.238603 77.563866 82.636627 0.000000 0.000000 0.000000 33.663209 14.853577 -6.205027 -3.309036 8.147417 4.718340 27.207838 18.191767 0.661783 -29.766893 5.592636 -30.215264 -25.145970 -9.911581 4.258831 0.000000 0.000000 0.000000 33.663209 14.853577 -6.205027 -71.987373 -6.939365 -7.390261 66.999197 -26.574757 -0.114949 -16.266977 -2.629448 3.371630 -10.193762 7.692285 7.441805 0.000000 0.000000 0.000000 33.663209 14.853577 -6.205027 4.044919 -1.317689 0.871377 8.119906 0.022534 4.122998 0.000000 0.000000 0.000000 0.000000 0.000000 0.000000 8.119883 0.022525 4.123001 -7.532412 0.728854 -0.600432 -5.741302 -0.331646 2.317628 0.000000 0.000000 0.000000 8.119883 0.022525 4.123001 3.816739 -21.095067 7.355335 0.000000 0.000000 0.000000 -46.951970 -22.334550 -42.484675 97.126431 -65.036488 110.196209 0.000000 0.000000 0.000000 8.119883 0.022525 4.123001 1.589202 9.675216 -5.205957 0.000000 0.000000 0.000000 -42.155429 7.989164 41.531098 105.751259 54.166252 -125.522580 0.000000 0.000000 0.000000 
-4.278080 77.088760 83.024803 0.000000 0.000000 0.000000 34.102639 14.766980 -6.316674 -3.641780 8.130728 4.953610 27.885390 18.097775 0.645784 -29.936760 5.636936 -30.668711 -25.730870 -10.005970 4.307667 0.000000 0.000000 0.000000 34.102639 14.766980 -6.316674 -72.747826 -7.167754 -7.396774 68.006875 -26.266527 -0.105084 -16.650104 -2.644004 3.214092 -10.781830 7.427523 7.622714 0.000000 0.000000 0.000000 34.102639 14.766980 -6.316674 3.863728 -1.349510 0.842052 7.759068 -0.007662 4.068835 0.000000 0.000000 0.000000 0.000000 0.000000 0.000000 7.759094 -0.007657 4.068836 -7.533813 0.785147 -0.637427 -6.001986 -0.471339 2.273179 0.000000 0.000000 0.000000 7.759094 -0.007657 4.068836 3.925319 -21.272418 7.662587 0.000000 0.000000 0.000000 -47.305583 -22.623108 -42.040129 94.800212 -65.650945 107.819843 0.000000 0.000000 0.000000 7.759094 -0.007657 4.068836 1.621058 9.666505 -5.608421 0.000000 0.000000 0.000000 -42.699734 8.436521 41.772143 104.152967 54.894592 -123.735243 0.000000 0.000000 0.000000 
-4.311820 76.587158 83.443726 0.000000 0.000000 0.000000 34.592596 14.708893 -6.447874 -3.996469 8.109734 5.206448 28.553888 17.974565 0.618896 -30.096559 5.707328 -31.136022 -26.301884 -10.130866 4.337056 0.000000 0.000000 0.000000 34.592596 14.708893 -6.447874 -73.578718 -7.416388 -7.433990 69.099439 -25.976890 -0.099732 -17.038426 -2.658270 3.013649 -11.474293 7.140647 7.872894 0.000000 0.000000 0.000000 34.592596 14.708893 -6.447874 3.664402 -1.383109 0.812339 7.362032 -0.037191 4.016986 0.000000 0.000000 0.000000 0.000000 0.000000 0.000000 7.362041 -0.037187 4.016987 -7.484357 0.826246 -0.670602 -6.283528 -0.615412 2.182547 0.000000 0.000000 0.000000 7.362041 -0.037187 4.016987 4.029333 -21.449219 7.939960 0.000000 0.000000 0.000000 -47.612340 -22.969947 -41.501722 92.443195 -66.256373 105.312904 0.000000 0.000000 0.000000 7.362041 -0.037187 4.016987 1.654014 9.672770 -5.992069 0.000000 0.000000 0.000000 -43.199174 8.802929 42.000408 102.529568 55.577410 -121.967535 0.000000 0.000000 0.000000 
